REM DIRINDEX 1\2\5,1\2\6,1\2\7,1\2\8,1\3\9,1\3\10,1\3\11,1\4\12,1\4\13,1\4\14,1\4\15,1\4\16
REM DIRNAME cjc034,folder01,folder02,folder03,folder04,folder05,folder06,folder07,folder08,folder09,folder10,folder11,folder12,folder13,folder14,folder15
TITLE ""
FILE "1200_2_sec05_1616_1630.mp3" MP3
  TRACK 01 AUDIO
    TITLE "0:"
    INDEX 01 00:00:00
  TRACK 02 AUDIO
    TITLE "10:cjc034_03352"
    INDEX 01 00:00:13
  TRACK 03 AUDIO
    TITLE "0:"
    INDEX 01 00:01:56
  TRACK 04 AUDIO
    TITLE "9:cjc034_03353"
    INDEX 01 00:01:58
  TRACK 05 AUDIO
    TITLE "0:"
    INDEX 01 00:02:69
  TRACK 06 AUDIO
    TITLE "10:cjc034_03354"
    INDEX 01 00:03:51
  TRACK 07 AUDIO
    TITLE "0:"
    INDEX 01 00:05:20
  TRACK 08 AUDIO
    TITLE "9:cjc034_03355"
    INDEX 01 00:05:28
  TRACK 09 AUDIO
    TITLE "0:"
    INDEX 01 00:06:31
  TRACK 10 AUDIO
    TITLE "10:cjc034_03356"
    INDEX 01 00:07:13
  TRACK 11 AUDIO
    TITLE "0:"
    INDEX 01 00:08:44
  TRACK 12 AUDIO
    TITLE "9:cjc034_03357"
    INDEX 01 00:08:48
  TRACK 13 AUDIO
    TITLE "0:"
    INDEX 01 00:09:53
  TRACK 14 AUDIO
    TITLE "10:cjc034_03358"
    INDEX 01 00:10:33
  TRACK 15 AUDIO
    TITLE "0:"
    INDEX 01 00:11:58
  TRACK 16 AUDIO
    TITLE "9:cjc034_03359"
    INDEX 01 00:11:60
  TRACK 17 AUDIO
    TITLE "0:"
    INDEX 01 00:13:02
  TRACK 18 AUDIO
    TITLE "10:cjc034_03360"
    INDEX 01 00:13:63
  TRACK 19 AUDIO
    TITLE "0:"
    INDEX 01 00:15:07
  TRACK 20 AUDIO
    TITLE "9:cjc034_03361"
    INDEX 01 00:15:09
  TRACK 21 AUDIO
    TITLE "0:"
    INDEX 01 00:16:08
  TRACK 22 AUDIO
    TITLE "10:cjc034_03362"
    INDEX 01 00:16:65
  TRACK 23 AUDIO
    TITLE "0:"
    INDEX 01 00:19:26
  TRACK 24 AUDIO
    TITLE "9:cjc034_03363"
    INDEX 01 00:19:36
  TRACK 25 AUDIO
    TITLE "0:"
    INDEX 01 00:20:36
  TRACK 26 AUDIO
    TITLE "10:cjc034_03364"
    INDEX 01 00:21:19
  TRACK 27 AUDIO
    TITLE "0:"
    INDEX 01 00:23:44
  TRACK 28 AUDIO
    TITLE "9:cjc034_03365"
    INDEX 01 00:23:50
  TRACK 29 AUDIO
    TITLE "0:"
    INDEX 01 00:24:69
  TRACK 30 AUDIO
    TITLE "11:cjc034_03366"
    INDEX 01 00:26:44
  TRACK 31 AUDIO
    TITLE "0:"
    INDEX 01 00:27:47
  TRACK 32 AUDIO
    TITLE "10:cjc034_03367"
    INDEX 01 00:28:53
  TRACK 33 AUDIO
    TITLE "0:"
    INDEX 01 00:30:10
  TRACK 34 AUDIO
    TITLE "9:cjc034_03368"
    INDEX 01 00:30:20
  TRACK 35 AUDIO
    TITLE "0:"
    INDEX 01 00:31:26
  TRACK 36 AUDIO
    TITLE "10:cjc034_03369"
    INDEX 01 00:32:05
  TRACK 37 AUDIO
    TITLE "0:"
    INDEX 01 00:34:08
  TRACK 38 AUDIO
    TITLE "9:cjc034_03370"
    INDEX 01 00:34:10
  TRACK 39 AUDIO
    TITLE "0:"
    INDEX 01 00:35:17
  TRACK 40 AUDIO
    TITLE "10:cjc034_03371"
    INDEX 01 00:36:03
  TRACK 41 AUDIO
    TITLE "0:"
    INDEX 01 00:37:03
  TRACK 42 AUDIO
    TITLE "9:cjc034_03372"
    INDEX 01 00:37:05
  TRACK 43 AUDIO
    TITLE "0:"
    INDEX 01 00:38:20
  TRACK 44 AUDIO
    TITLE "10:cjc034_03373"
    INDEX 01 00:39:05
  TRACK 45 AUDIO
    TITLE "0:"
    INDEX 01 00:41:26
  TRACK 46 AUDIO
    TITLE "9:cjc034_03374"
    INDEX 01 00:41:30
  TRACK 47 AUDIO
    TITLE "0:"
    INDEX 01 00:42:39
  TRACK 48 AUDIO
    TITLE "10:cjc034_03375"
    INDEX 01 00:43:21
  TRACK 49 AUDIO
    TITLE "0:"
    INDEX 01 00:44:50
  TRACK 50 AUDIO
    TITLE "9:cjc034_03376"
    INDEX 01 00:44:56
  TRACK 51 AUDIO
    TITLE "0:"
    INDEX 01 00:46:04
  TRACK 52 AUDIO
    TITLE "10:cjc034_03377"
    INDEX 01 00:46:60
  TRACK 53 AUDIO
    TITLE "0:"
    INDEX 01 00:47:64
  TRACK 54 AUDIO
    TITLE "9:cjc034_03378"
    INDEX 01 00:47:66
  TRACK 55 AUDIO
    TITLE "0:"
    INDEX 01 00:48:65
  TRACK 56 AUDIO
    TITLE "10:cjc034_03379"
    INDEX 01 00:49:49
  TRACK 57 AUDIO
    TITLE "0:"
    INDEX 01 00:50:44
  TRACK 58 AUDIO
    TITLE "9:cjc034_03380"
    INDEX 01 00:50:46
  TRACK 59 AUDIO
    TITLE "0:"
    INDEX 01 00:51:63
  TRACK 60 AUDIO
    TITLE "10:cjc034_03381"
    INDEX 01 00:52:47
  TRACK 61 AUDIO
    TITLE "0:"
    INDEX 01 00:54:68
  TRACK 62 AUDIO
    TITLE "9:cjc034_03382"
    INDEX 01 00:54:70
  TRACK 63 AUDIO
    TITLE "0:"
    INDEX 01 00:56:24
